<?xml version="1.0" standalone="no"?>
<!DOCTYPE svg PUBLIC "-//W3C//DTD SVG 20010904//EN"
 "http://www.w3.org/TR/2001/REC-SVG-20010904/DTD/svg10.dtd">
<svg version="1.0" xmlns="http://www.w3.org/2000/svg"
 width="260.000000pt" height="260.000000pt" viewBox="0 0 260.000000 260.000000"
 preserveAspectRatio="xMidYMid meet">
<metadata>
Created by potrace 1.11, written by Peter Selinger 2001-2013
</metadata>
<g transform="translate(0.000000,260.000000) scale(0.100000,-0.100000)"
fill="#000000" stroke="none">
<path d="M1467 2363 c-3 -5 -24 -9 -46 -8 -22 1 -38 -2 -35 -7 3 -4 -4 -8 -15
-8 -11 0 -32 -5 -48 -12 -15 -6 -31 -11 -35 -10 -5 1 -8 -2 -8 -8 0 -5 -6 -10
-14 -10 -21 0 -118 -79 -156 -128 -19 -24 -41 -50 -48 -58 -7 -8 -10 -14 -5
-14 4 0 3 -4 -2 -8 -12 -8 -65 -109 -69 -132 -2 -8 -6 -27 -10 -42 -5 -15 -9
-42 -10 -61 -1 -18 -6 -39 -10 -45 -4 -7 -4 -12 1 -12 4 0 9 -17 9 -38 3 -74
9 -132 14 -132 3 0 7 -12 8 -26 1 -14 10 -51 19 -82 9 -31 18 -59 18 -62 1 -3
7 -18 13 -33 7 -16 12 -33 12 -38 0 -5 5 -9 11 -9 5 0 8 -4 5 -8 -6 -10 73
-167 115 -229 16 -23 29 -44 29 -48 0 -3 10 -17 23 -31 l23 -24 50 47 c27 27
63 66 79 87 17 21 35 44 40 50 22 25 75 107 75 116 0 6 4 10 9 10 15 0 21 42
8 64 -6 12 -10 24 -9 29 1 4 -2 7 -7 7 -5 0 -12 10 -16 23 -10 30 -12 36 -15
42 -1 3 -3 8 -4 13 -1 4 -9 23 -18 42 -8 19 -21 53 -28 75 -7 22 -16 44 -20
49 -5 5 -6 15 -3 22 3 8 0 14 -7 14 -6 0 -8 5 -5 10 4 6 1 17 -5 25 -7 8 -10
15 -7 15 3 0 1 15 -4 33 -25 82 -27 203 -5 279 7 24 12 27 35 21 34 -8 151
-63 174 -82 9 -8 17 -10 17 -5 0 5 4 4 8 -2 4 -6 30 -26 57 -44 98 -67 214
-179 303 -295 34 -44 67 -86 72 -92 6 -7 7 -13 3 -13 -4 0 -3 -4 3 -8 18 -12
114 -189 146 -272 6 -14 14 -32 18 -40 4 -8 13 -39 20 -67 8 -29 17 -53 21
-53 3 0 6 -8 6 -17 -1 -10 4 -40 10 -68 17 -69 23 -117 28 -207 4 -64 2 -78
-10 -79 -49 -3 -67 -2 -118 11 -31 7 -57 16 -57 19 0 3 -15 12 -32 20 -33 14
-111 65 -136 89 -39 36 -54 36 -83 1 -52 -63 -94 -110 -151 -172 -32 -34 -58
-65 -58 -69 0 -5 -7 -8 -15 -8 -27 0 -16 -32 23 -69 38 -37 145 -96 194 -107
16 -3 26 -9 24 -13 -3 -4 3 -7 12 -8 9 -1 33 -5 52 -10 51 -13 260 -5 260 10
0 5 6 7 13 4 17 -6 112 28 166 60 57 33 149 126 157 159 3 13 10 24 14 24 4 0
18 35 31 78 19 63 24 101 25 212 1 74 -1 140 -4 145 -4 6 -7 21 -7 35 0 14 -4
31 -9 38 -4 7 -5 16 -2 19 3 3 0 15 -6 27 -10 19 -16 47 -21 99 -1 9 -5 17 -9
17 -4 0 -8 9 -8 20 0 11 -5 20 -12 20 -6 0 -9 3 -5 6 9 9 -59 169 -111 259
-52 91 -136 212 -195 282 -63 75 -189 189 -260 235 -23 15 -47 32 -54 38 -12
10 -131 67 -168 80 -46 17 -103 31 -140 35 -22 2 -40 4 -40 5 0 7 -47 5 -52
-3 -3 -5 -9 -4 -13 3 -4 7 -10 8 -13 3z m213 -187 c68 -35 200 -125 200 -137
0 -5 6 -9 13 -9 14 0 165 -152 207 -208 14 -18 33 -42 42 -54 10 -11 20 -29
23 -39 4 -11 10 -19 15 -19 4 0 10 -8 14 -17 7 -22 39 -77 56 -98 7 -8 9 -15
6 -15 -4 0 1 -12 12 -27 35 -51 109 -226 127 -298 1 -5 4 -17 8 -25 5 -14 22
-103 31 -162 3 -15 7 -32 11 -38 3 -5 1 -10 -5 -10 -7 0 -8 -6 -2 -17 7 -16 9
-78 3 -93 -2 -3 -4 -12 -6 -22 -5 -25 -45 -75 -70 -86 -22 -10 -23 -9 -23 38
-1 59 -14 178 -22 200 -3 6 -3 8 -14 73 -5 26 -12 47 -16 47 -4 0 -6 11 -5 25
2 14 -1 25 -6 25 -5 0 -9 6 -9 14 0 8 -5 27 -12 43 -6 15 -12 34 -14 40 -4 23
-102 218 -128 256 -14 20 -23 37 -20 37 3 0 -1 6 -8 14 -7 7 -20 24 -28 36 -8
13 -22 30 -31 39 -8 9 -26 32 -39 51 -29 42 -171 185 -219 220 -19 14 -47 36
-63 48 -15 13 -28 20 -28 15 0 -4 -4 -3 -8 3 -6 9 -133 87 -139 86 -2 -1 -18
5 -36 13 -18 7 -45 17 -61 21 -26 6 -26 7 -10 25 9 10 20 16 25 14 4 -3 10 -1
14 5 4 6 10 8 15 5 5 -3 11 -2 14 3 3 5 33 8 68 7 48 -1 76 -8 118 -29z"/>
<path d="M1433 1863 c-8 -3 -9 -13 -3 -34 5 -16 9 -32 9 -34 1 -3 2 -7 2 -10
1 -3 3 -9 4 -15 1 -5 3 -17 4 -26 0 -8 6 -12 11 -9 6 3 10 2 10 -4 0 -5 9 -8
20 -6 11 2 18 0 15 -4 -3 -5 5 -12 18 -15 37 -10 107 -82 107 -110 0 -3 -26
-6 -58 -6 -50 0 -58 -3 -59 -20 -2 -27 14 -35 67 -36 l45 0 -2 -46 c-1 -52
-54 -164 -104 -219 -16 -18 -29 -35 -29 -39 0 -3 -25 -32 -55 -64 -30 -31 -55
-62 -55 -67 0 -5 -4 -9 -8 -9 -4 0 -30 -21 -58 -48 -102 -95 -200 -173 -208
-165 -3 4 -6 1 -6 -4 0 -6 -44 -38 -97 -71 -108 -66 -223 -126 -223 -116 0 4
-6 2 -12 -3 -22 -17 -107 -45 -117 -39 -5 4 -12 2 -15 -3 -13 -20 -167 -31
-236 -17 -93 19 -96 24 -71 116 44 165 195 357 403 513 20 15 39 27 43 27 3 0
16 10 28 21 12 12 36 28 52 36 17 7 50 27 75 43 25 15 53 29 63 29 15 1 16 5
7 21 -6 11 -7 20 -3 20 4 0 1 4 -7 10 -8 5 -17 6 -20 2 -3 -4 -27 -18 -54 -32
-27 -13 -54 -29 -60 -35 -6 -5 -28 -18 -48 -29 -20 -10 -45 -26 -55 -35 -10
-9 -43 -35 -74 -59 -170 -129 -354 -369 -403 -527 -10 -30 -22 -55 -26 -55 -5
0 -18 13 -30 30 -12 16 -18 30 -14 30 3 0 1 7 -6 15 -28 33 -15 174 23 255 32
69 90 144 176 230 53 52 107 103 120 114 25 19 164 119 191 136 8 5 35 23 60
40 25 16 51 30 58 30 6 0 12 5 12 11 0 5 5 7 10 4 6 -3 10 -1 10 4 0 6 6 11
13 11 18 0 59 44 50 53 -4 4 -8 24 -9 45 -1 20 -2 41 -3 45 -1 4 -9 3 -20 -2
-10 -6 -21 -7 -25 -4 -3 3 -6 1 -6 -5 0 -7 -3 -11 -7 -10 -5 0 -17 -2 -28 -7
-25 -10 -158 -86 -165 -94 -3 -4 -23 -18 -45 -32 -104 -67 -288 -232 -373
-333 -104 -123 -192 -286 -210 -384 -16 -91 -6 -187 27 -257 48 -104 124 -205
201 -269 39 -32 140 -87 168 -92 14 -3 31 -9 37 -13 15 -13 102 -23 178 -22
78 2 185 22 272 53 116 40 361 172 373 201 2 4 8 7 14 7 10 0 187 132 248 185
83 73 220 216 220 231 0 3 11 20 24 37 41 56 116 214 120 254 2 13 6 26 9 30
4 3 7 17 7 30 0 12 4 23 9 23 5 0 9 10 9 23 0 12 1 52 2 88 1 65 -3 83 -44
169 -60 129 -171 233 -297 279 -83 29 -152 43 -176 34z"/>
</g>
</svg>
